<svg width="90" height="30" viewBox="0 0 90 30" fill="none" xmlns="http://www.w3.org/2000/svg">
<path d="M85 30H0L4.215 0H89.215L85 30Z" fill="url(#paint0_linear)"/>
<path d="M7.1673 15.78L8.6673 5H13.3223L11.8223 15.42C11.3223 19.04 13.0023 21.24 17.1673 21.24C21.0123 21.24 22.8223 19.29 23.3823 15.42L24.8823 5H29.5023L28.0023 15.78C27.1673 21.88 23.7973 25.305 17.0023 25.305C10.2073 25.305 6.3323 21.6 7.1673 15.78Z" fill="white"/>
<path d="M48.7623 5L50.8523 19.57L58.2873 5H63.1073L52.8023 25H47.5923L45.5323 10.6L38.4573 25H33.3023L30.0023 5H34.7073L37.0023 19.57L44.0523 5H48.7623Z" fill="white"/>
<path d="M83.2373 5L82.6823 9H67.8623L67.3323 12.84H80.5623L80.0023 16.755H66.7773L66.1623 21H81.0023L80.4173 25H61.0373L63.8523 5H83.2373Z" fill="white"/>
<defs>
<linearGradient id="paint0_linear" x1="44.6075" y1="0" x2="44.6075" y2="30" gradientUnits="userSpaceOnUse">
<stop stop-color="#F66C09"/>
<stop offset="1" stop-color="#F94B42"/>
</linearGradient>
</defs>
</svg>
