<svg width="398" height="240" viewBox="0 0 398 240" fill="none" xmlns="http://www.w3.org/2000/svg">
<path d="M340.57 120H0.570007L17.43 0H357.43L340.57 120Z" fill="url(#paint0_linear)"/>
<path d="M29.2392 63.12L35.2392 20H53.8592L47.8592 61.68C45.8592 76.16 52.5792 84.96 69.2392 84.96C84.6192 84.96 91.8592 77.16 94.0992 61.68L100.099 20H118.579L112.579 63.12C109.239 87.52 95.7592 101.22 68.5792 101.22C41.3992 101.22 25.8992 86.4 29.2392 63.12Z" fill="white"/>
<path d="M195.619 20L203.979 78.28L233.719 20H252.999L211.779 100H190.939L182.699 42.4L154.399 100H133.779L120.579 20H139.399L148.579 78.28L176.779 20H195.619Z" fill="white"/>
<path d="M333.519 20L331.299 36H272.019L269.899 51.36H322.819L320.579 67.02H267.679L265.219 84H324.579L322.239 100H244.719L255.979 20H333.519Z" fill="white"/>
<path d="M380.57 240H40.57L57.43 120H397.43L380.57 240Z" fill="white"/>
<path d="M105.55 161.78C104.25 171.22 98.41 176.52 89.11 176.52C79.21 176.52 73.11 170.98 74.51 160.72L77.45 140H87.21L84.31 161.02C83.65 165.62 85.75 168.02 89.51 168.02C93.27 168.02 95.21 165.88 95.91 161.02L98.81 140H108.57L105.55 161.78Z" fill="#F94B42"/>
<path d="M142.19 176H133.91L122.41 154.62L119.41 176H110.05L115.11 140H124.57L135.07 160.3L137.91 140H147.25L142.19 176Z" fill="#F94B42"/>
<path d="M158.91 176H149.11L154.15 140H163.95L158.91 176Z" fill="#F94B42"/>
<path d="M176.01 176L168.57 140H178.57L182.77 163.14L194.25 140H204.57L186.05 176H176.01Z" fill="#F94B42"/>
<path d="M235.35 140L234.15 148.3H217.65L216.91 153.64H230.57L229.43 161.74H215.75L214.95 167.6H231.45L230.29 176H204.15L209.21 140H235.35Z" fill="#F94B42"/>
<path d="M246.15 176H236.35L241.41 140H256.21C264.65 140 269.65 144.24 269.65 151C269.663 153.604 268.859 156.146 267.352 158.27C265.846 160.393 263.712 161.992 261.25 162.84L267.45 175.9H256.91L251.65 164H247.81L246.15 176ZM254.85 156.34C255.488 156.418 256.136 156.363 256.751 156.177C257.367 155.992 257.937 155.68 258.426 155.263C258.915 154.846 259.312 154.331 259.591 153.752C259.871 153.173 260.027 152.542 260.05 151.9C260.05 149.74 258.45 148.3 255.35 148.3H250.01L248.91 156.3L254.85 156.34Z" fill="#F94B42"/>
<path d="M277.15 163.12C278.357 164.753 279.922 166.089 281.724 167.025C283.527 167.961 285.52 168.472 287.55 168.52C290.75 168.52 292.69 167.18 292.69 165.12C292.69 163.58 291.51 162.72 287.31 161.82C279.31 160.18 275.65 157.28 275.65 151.82C275.65 145.02 281.55 139.42 290.75 139.42C293.364 139.351 295.961 139.851 298.361 140.888C300.762 141.924 302.908 143.47 304.65 145.42L299.05 151.62C297.904 150.351 296.512 149.329 294.957 148.617C293.403 147.906 291.719 147.518 290.01 147.48C287.01 147.48 285.45 148.72 285.45 150.38C285.45 152.04 286.61 152.72 292.19 153.88C299.05 155.32 302.65 158.48 302.65 163.48C302.65 170.62 296.79 176.56 286.91 176.56C283.941 176.656 280.986 176.099 278.256 174.927C275.526 173.756 273.086 171.998 271.11 169.78L277.15 163.12Z" fill="#F94B42"/>
<path d="M332.79 140L340.19 176H330.79L329.49 169.5H316.35L313.05 176H303.05L321.51 140H332.79ZM320.31 161.54H327.89L325.75 150.8L320.31 161.54Z" fill="#F94B42"/>
<path d="M349.85 140H359.65L355.75 167.6H371.19L370.05 176H344.81L349.85 140Z" fill="#F94B42"/>
<path d="M97.01 184L99.35 209.2L109.59 184H117.15L101.99 220H94.81L92.21 195.5L82.11 220H74.91L70.81 184H78.11L80.57 209.22L90.57 184H97.01Z" fill="#F94B42"/>
<path d="M146.57 184L145.65 190.34H128.01L126.91 198.34H141.65L140.75 204.64H126.01L124.81 213.54H142.35L141.45 220H116.57L121.63 184H146.57Z" fill="#F94B42"/>
<path d="M151.55 184H165.55C173.35 184 176.89 187.44 176.89 192.54C176.996 194.536 176.431 196.51 175.286 198.148C174.141 199.786 172.481 200.994 170.57 201.58C172.13 202.134 173.469 203.177 174.388 204.553C175.307 205.93 175.757 207.567 175.67 209.22C175.67 215.58 170.47 219.98 162.83 219.98H146.57L151.55 184ZM154.41 213.74H162.91C166.75 213.74 168.91 211.44 168.91 208.74C168.91 206.34 167.21 204.54 163.61 204.54H155.71L154.41 213.74ZM164.15 198.6C168.15 198.6 169.95 196.5 169.95 193.94C169.95 191.38 168.31 190.1 164.95 190.1H157.75L156.57 198.68L164.15 198.6Z" fill="#F94B42"/>
<path d="M218.57 184L217.67 190.34H200.11L199.01 198.34H213.75L212.85 204.64H198.11L196.91 213.54H214.45L213.55 220H188.75L193.81 184H218.57Z" fill="#F94B42"/>
<path d="M223.65 184H235.21C245.65 184 251.75 189.74 251.75 199.64C251.75 210.8 244.49 219.9 232.15 219.9H218.57L223.65 184ZM232.41 213.6C239.95 213.6 244.41 207.6 244.41 200.1C244.41 193.64 240.71 190.3 234.41 190.3H229.91L226.57 213.68L232.41 213.6Z" fill="#F94B42"/>
<path d="M261.05 220H253.71L258.75 184H266.11L261.05 220Z" fill="#F94B42"/>
<path d="M287.69 190.42L283.55 220H276.21L280.31 190.44H269.05L269.95 184.1H299.85L298.95 190.44L287.69 190.42Z" fill="#F94B42"/>
<path d="M332.39 199.68C332.39 210.68 325.19 220.52 313.85 220.52C304.71 220.52 298.35 214.28 298.35 204.38C298.35 193.38 305.65 183.52 316.99 183.52C326.15 183.52 332.39 189.78 332.39 199.68ZM305.81 204C305.81 210.4 309.15 214 314.19 214C320.69 214 324.99 207.54 324.99 200C324.99 193.6 321.69 190 316.65 190C310.15 190 305.81 196.42 305.81 204Z" fill="#F94B42"/>
<path d="M341.71 220H334.35L339.41 184H353.41C361.01 184 365.91 187.7 365.91 194.34C365.949 197.066 365.038 199.72 363.334 201.847C361.63 203.975 359.238 205.443 356.57 206L363.37 220H355.37L349.07 206.64H343.53L341.71 220ZM352.15 200.5C356.39 200.5 358.65 197.84 358.65 194.94C358.65 192.04 356.49 190.34 352.65 190.34H345.85L344.45 200.5H352.15Z" fill="#F94B42"/>
<defs>
<linearGradient id="paint0_linear" x1="179" y1="0" x2="179" y2="120" gradientUnits="userSpaceOnUse">
<stop stop-color="#F66C09"/>
<stop offset="1" stop-color="#F94B42"/>
</linearGradient>
</defs>
</svg>
