<svg width="108" height="36" viewBox="0 0 108 36" fill="none" xmlns="http://www.w3.org/2000/svg">
<path d="M102 36H0L5.058 0H107.058L102 36Z" fill="url(#paint0_linear)"/>
<path d="M8.60075 18.936L10.4008 6H15.9868L14.1868 18.504C13.5868 22.848 15.6028 25.488 20.6008 25.488C25.2148 25.488 27.3867 23.148 28.0588 18.504L29.8587 6H35.4028L33.6028 18.936C32.6008 26.256 28.5568 30.366 20.4028 30.366C12.2488 30.366 7.59875 25.92 8.60075 18.936Z" fill="white"/>
<path d="M58.5148 6L61.0228 23.484L69.9448 6H75.7288L63.3628 30H57.1108L54.6388 12.72L46.1488 30H39.9628L36.0028 6H41.6488L44.4028 23.484L52.8628 6H58.5148Z" fill="white"/>
<path d="M99.8848 6L99.2188 10.8H81.4348L80.7988 15.408H96.6747L96.0028 20.106H80.1328L79.3948 25.2H97.2027L96.5008 30H73.2448L76.6227 6H99.8848Z" fill="white"/>
<defs>
<linearGradient id="paint0_linear" x1="53.529" y1="0" x2="53.529" y2="36" gradientUnits="userSpaceOnUse">
<stop stop-color="#F66C09"/>
<stop offset="1" stop-color="#F94B42"/>
</linearGradient>
</defs>
</svg>
