<svg width="128" height="128" viewBox="0 0 128 128" fill="none" xmlns="http://www.w3.org/2000/svg">
<rect width="128" height="128" fill="#161B32"/>
<path fill-rule="evenodd" clip-rule="evenodd" d="M64 94C86.0914 94 104 79.6731 104 62C104 44.3269 86.0914 30 64 30C41.9086 30 24 44.3269 24 62C24 69.5391 27.259 76.4693 32.7113 81.9382C34.5743 83.8067 35.4315 86.592 34.1536 88.9004C30.6807 95.1737 25.9305 99.0286 25 99C23.9468 98.9676 35.957 99.9666 46.6415 93.4694C48.2982 92.462 50.2939 92.1137 52.1762 92.5789C55.9131 93.5026 59.8839 94 64 94Z" fill="#9DA3BE"/>
<path fill-rule="evenodd" clip-rule="evenodd" d="M64 94C86.0914 94 104 79.6731 104 62C104 44.3269 86.0914 30 64 30C41.9086 30 24 44.3269 24 62C24 69.5391 27.259 76.4693 32.7113 81.9382C34.5743 83.8067 35.4315 86.592 34.1536 88.9004C30.6807 95.1737 25.9305 99.0286 25 99C23.9468 98.9676 35.957 99.9666 46.6415 93.4694C48.2982 92.462 50.2939 92.1137 52.1762 92.5789C55.9131 93.5026 59.8839 94 64 94Z" fill="url(#paint0_linear)"/>
<path d="M47.0642 53.768L44.6402 71H61.3442L61.8482 67.568H49.0562L49.5842 63.896H60.9842L61.4642 60.512H50.0642L50.5202 57.2H63.2882L63.7682 53.768H47.0642ZM84.0056 53.768H80.1176L78.4856 65.408L69.8456 53.768H65.8376L63.4136 71H67.3016L69.0056 58.76L78.0776 71H81.5816L84.0056 53.768Z" fill="#5C6284"/>
<defs>
<linearGradient id="paint0_linear" x1="64" y1="30" x2="64" y2="99.0376" gradientUnits="userSpaceOnUse">
<stop stop-color="#C2C6D6"/>
<stop offset="1" stop-color="#C2C6D6" stop-opacity="0"/>
</linearGradient>
</defs>
</svg>
