<svg width="128" height="128" viewBox="0 0 128 128" fill="none" xmlns="http://www.w3.org/2000/svg">
<rect width="128" height="128" fill="#161B32"/>
<path d="M48.0897 102H55V95.107H51.3205C43.8718 95.107 42.1667 93.8698 42.1667 88.9209C42.1667 84.1488 42.6154 79.907 42.6154 74.5163C42.6154 67.8 40.0128 65.2372 33.641 64.1767V63.8232C40.0128 62.7628 42.6154 60.2 42.6154 53.4837C42.6154 48.2698 42.1667 43.7628 42.1667 39.0791C42.1667 34.1302 43.8718 32.893 51.3205 32.893H55V26H48.0897C36.6026 26 31.3974 29.0046 31.3974 38.5488C31.3974 44.7349 32.2949 48.1814 32.2949 53.6605C32.2949 56.7535 29.6923 60.0233 20 60.2V67.8C29.6923 67.9767 32.2949 71.2465 32.2949 74.3395C32.2949 79.907 31.3974 83.1767 31.3974 89.4512C31.3974 98.9953 36.6026 102 48.0897 102Z" fill="#9DA3BE"/>
<path d="M74 102H80.7128C91.8718 102 96.9282 98.9953 96.9282 89.4512C96.9282 83.1767 95.9692 79.907 95.9692 74.3395C95.9692 71.2465 98.4974 67.9767 108 67.8V60.2C98.4974 60.0233 95.9692 56.7535 95.9692 53.6605C95.9692 48.1814 96.9282 44.7349 96.9282 38.5488C96.9282 29.0046 91.8718 26 80.7128 26H74V32.893H77.5744C84.7231 32.893 86.3795 34.1302 86.3795 39.0791C86.3795 43.7628 86.0308 48.2698 86.0308 53.4837C86.0308 60.2 88.4718 62.7628 94.7487 63.8232V64.1767C88.4718 65.2372 86.0308 67.8 86.0308 74.5163C86.0308 79.907 86.3795 84.1488 86.3795 88.9209C86.3795 93.8698 84.7231 95.107 77.5744 95.107H74V102Z" fill="#9DA3BE"/>
</svg>
