<svg width="128" height="128" viewBox="0 0 128 128" fill="none" xmlns="http://www.w3.org/2000/svg">
<rect width="128" height="128" fill="#161B32"/>
<path d="M34.7158 35.5441L75.9392 76.7675" stroke="#9DA3BE" stroke-width="4" stroke-linecap="square"/>
<path d="M80.2427 81.0709L98.2841 99.1123" stroke="#354064" stroke-width="12" stroke-linecap="round"/>
<rect x="69.3433" y="81.4852" width="16" height="6" rx="1" transform="rotate(-45 69.3433 81.4852)" fill="#5C6284"/>
<path d="M34.7159 32.8042C36.2291 34.3175 36.8425 36.1575 36.0858 36.9142C35.3292 37.6708 33.4891 37.0574 31.9759 35.5442L34.7159 32.8042Z" fill="url(#paint0_linear)"/>
<path fill-rule="evenodd" clip-rule="evenodd" d="M73.3354 31.7366C78.3995 26.6725 85.8906 25.5255 92.0191 28.3066L81.5771 38.7486C80.796 39.5296 80.796 40.796 81.5771 41.577L86.9589 46.9588C87.7399 47.7399 89.0063 47.7399 89.7873 46.9588L100.229 36.5167C103.011 42.6453 101.864 50.1365 96.7994 55.2006C92.2772 59.7228 85.8198 61.1214 80.1254 59.3886C78.8458 58.9992 77.417 59.6043 76.4712 60.55L36.1661 100.855C33.823 103.198 30.024 103.198 27.6808 100.855C25.3377 98.512 25.3377 94.713 27.6808 92.3699L67.9859 52.0648C68.9317 51.119 69.5368 49.6901 69.1474 48.4105C67.4147 42.7162 68.8132 36.2588 73.3354 31.7366ZM31.9219 99.6016C33.5787 99.6016 34.9219 98.2584 34.9219 96.6016C34.9219 94.9447 33.5787 93.6016 31.9219 93.6016C30.265 93.6016 28.9219 94.9447 28.9219 96.6016C28.9219 98.2584 30.265 99.6016 31.9219 99.6016Z" fill="#7E87A9"/>
<defs>
<linearGradient id="paint0_linear" x1="36.0858" y1="36.9142" x2="33.3459" y2="34.1742" gradientUnits="userSpaceOnUse">
<stop stop-color="#D2D5E0" stop-opacity="0"/>
<stop offset="1" stop-color="#D2D5E0"/>
</linearGradient>
</defs>
</svg>
